<svg id="Layer_1" data-name="Layer 1" xmlns="http://www.w3.org/2000/svg" viewBox="0 0 512 512"><defs><style>.cls-1{fill:#cad8dd;}.cls-2{fill:#dde5e8;}.cls-3{fill:#71c6c4;}.cls-4{fill:#afc3c9;}.cls-5{opacity:0.05;}.cls-6{fill:#231f20;}</style></defs><title>monitor-flat</title><path class="cls-1" d="M295.68,390.4c5,25,16.19,53.76,31.74,64H371.2a12.8,12.8,0,0,1,0,25.6H140.8a12.8,12.8,0,0,1,0-25.6h40.58c15.55-10.24,26.75-39,31.74-64Z"/><path class="cls-2" d="M0,288v38.4a64,64,0,0,0,64,64H448a64,64,0,0,0,64-64V288Z"/><path class="cls-3" d="M512,96V288H0V96A64,64,0,0,1,64,32H448A64,64,0,0,1,512,96Z"/><circle class="cls-4" cx="256" cy="339.2" r="12.8"/><g class="cls-5"><path class="cls-6" d="M512,96V288H87.23l256-256H448A64,64,0,0,1,512,96Z"/></g></svg>